<svg version="1" xmlns="http://www.w3.org/2000/svg" width="1333.333" height="1333.333" viewBox="0 0 1000.000000 1000.000000"><path d="M472.9 89.4c-.2.2-4.9.7-10.4 1.1-5.5.3-11.3.8-13 1-1.6.2-5.2.7-8 1-6.2.7-13.4 1.6-16 2.1-1.1.2-4 .7-6.5 1-3.5.5-21.1 4-34.9 7-12.4 2.6-52.7 15-61.6 18.9-1.6.7-6.1 2.5-10 4-15.6 6.1-45.8 20.8-62.5 30.5-11.4 6.6-37.8 23.5-39 24.9-.3.3-2.7 2.2-5.5 4.1-2.7 1.9-5.6 4-6.4 4.8-.8.7-2.6 2.1-4 3-1.4.9-3.5 2.4-4.6 3.4-1.1.9-5.4 4.4-9.5 7.8-18.2 15-44.8 40.9-59 57.6-3.3 3.8-11.3 13.6-12.2 14.9-.4.5-1.8 2.2-3 3.7-2.6 3-3.9 4.8-12.5 16.7-3.4 4.7-6.6 9-7.1 9.6-.4.5-4.9 7.5-9.9 15.5-42 67.4-64.7 132.7-74.8 215.5-2.1 17.2-2.8 68.5-1.1 88 .4 5.5.8 10.8.8 11.7-.1 1.7 3 1.8 50.4 1.8H103l-.6-6.3c-.3-3.4-.8-7.3-1-8.7-.9-4.5-1.2-50.2-.4-60.5 1.7-22 2.9-30.5 7.1-52.2 4.7-24 13.4-52.7 23-75.8 4.7-11.4 18.8-39.4 25.3-50.3 5.1-8.4 16.8-26.3 18.8-28.7.5-.5 2.7-3.5 4.9-6.5s4.8-6.4 5.7-7.5c.9-1.1 2.4-2.9 3.2-4.1 7.7-11.1 44.4-47.7 58.8-58.8 1.5-1.1 2.9-2.3 3.2-2.6 1.6-1.7 14.1-11 14.9-11 .5 0 1.1-.4 1.3-.8 1-2.7 31.5-21.3 53-32.5 28.6-14.9 73.3-30.1 103.1-35.2a452 452 0 0 0 10.7-2c1.4-.3 4.3-.7 6.5-1 2.2-.3 5.4-.7 7-1 23.4-3.7 72.9-4.2 97.5-1 42.8 5.5 75.2 14.1 112 29.7 9.7 4.1 31.7 14.9 38 18.6 1.9 1.1 5.3 3 7.5 4.2 8.7 4.7 35.7 23.5 48.5 33.6 15.1 12.1 43.7 40.1 55.1 54 13.3 16.2 17.8 22.4 28.1 37.9 30.4 46.2 51.8 101 60.3 154.5 4.1 26.3 5.3 42 4.9 70-.1 14-.5 27.1-.8 29-.2 1.9-.7 6.1-1.1 9.2l-.6 5.8H947c39.1 0 50.2-.3 50.5-1.3 1.7-4.8 2.8-68.5 1.5-83.7-1.7-19.2-2.1-22.6-2.5-25-.2-1.4-.7-4.8-1-7.5-5.5-46.9-23.8-106.7-47-153.5-17.4-35.1-45.2-77.7-66.6-101.9-1.9-2.1-6.1-6.9-9.4-10.6-23.6-26.8-58.1-57.2-88-77.6-4.4-2.9-8.1-5.7-8.3-6.2-.2-.4-.8-.7-1.3-.7-.6 0-3.7-1.8-6.9-4s-6.3-4-6.8-4-1.5-.6-2.1-1.4c-.7-.8-2.6-2.2-4.4-3.1-1.8-.9-5.4-2.9-8.2-4.5-16.9-10-51.9-26.3-71.7-33.4-18.8-6.8-45.2-15.1-51.3-16.1-1.1-.2-6-1.3-11-2.5-4.9-1.2-9.9-2.4-11-2.6-7.2-1.4-23.7-4.4-27-4.9-10-1.3-20.5-2.6-26.5-3.1-3.6-.3-7.8-.8-9.5-1.1-3.4-.5-65-1.4-65.6-.9z"/><path d="M480.9 265.4c-.2.2-4.3.6-9 1-7.4.6-15.4 1.6-30.9 4.2-1.9.3-7.3 1.4-12 2.5s-9.6 2.3-10.9 2.5c-4.2.8-34.3 11.1-41.7 14.2-14.8 6.2-35.5 16.9-47.9 24.7-6.6 4.1-15 9.8-15.5 10.4-.3.3-2.7 2.2-5.5 4-2.7 1.9-5.2 3.7-5.5 4-.3.4-2.7 2.4-5.5 4.6-6.8 5.4-12.4 10.3-23 20.4-8.8 8.4-28.4 30.7-32 36.4-.5.9-3.7 5.3-6.9 9.8-13.2 18.1-27.9 45.8-36.9 69.5-7.5 19.7-13.1 39.7-16.7 59.4-.5 3-1.2 7.3-1.5 9.5-.3 2.2-.7 5.6-1 7.5-2.7 18.4-2.7 63.5-.1 80 .2 1.4.7 4.6 1 7.1 5 36.7 20.1 80.5 38.5 112.2 2.8 4.9 5.1 9.1 5.1 9.3 0 1.2 18.8 27.9 24.1 34.2.6.7 3.4 4.1 6.2 7.5 2.8 3.4 6.2 7.2 7.4 8.5 1.3 1.3 2.3 2.8 2.3 3.4 0 .6.2.9.5.7.2-.3 5.3 4.3 11.2 10.1 9.3 9.1 17.1 16 23.2 20.8 32.9 25.6 65 42.9 102.2 55 18.7 6.1 38.1 10.7 54.4 12.8 2.8.3 5.2.7 5.5.9.3.2 5 .7 10.5 1.1 18.1 1.6 59.4 1 70-1 1.1-.2 4.3-.7 7-1 2.8-.4 6.6-1 8.5-1.3 5.8-.8 24-5 32-7.3 4.1-1.2 8.2-2.3 9.1-2.5.8-.2 5.6-1.7 10.5-3.4 26.9-9.5 54-23.2 76.9-38.9 10.6-7.3 27.5-20.5 27.5-21.4 0-.5.5-.8 1.1-.8 1.2 0 31.1-29.7 35.4-35.3 1.7-2.1 4.2-5.3 5.7-7 4.9-5.6 18.4-24.9 24.4-34.7 18.4-30.4 33.6-68.3 40-100.3.2-1 .5-2.6.8-3.5.3-.9.7-3.3 1-5.2.3-1.9.8-4.5 1-5.7.3-1.1.7-4.3 1.1-7 .4-2.6.9-5.9 1.1-7.3 3-18 2.4-67.5-1-86.7-.3-1.4-.8-4.7-1.2-7.2-.3-2.5-1.2-7.3-2-10.6-.7-3.3-1.5-7.2-1.8-8.6-.9-5.3-5.6-21.7-9.5-32.9-12.4-36.3-33.5-73.8-57.9-102.8-5.7-6.7-31.6-32.9-36.8-37.2-8.4-6.9-10.1-8.3-11.4-9.3-31.3-25.1-75.9-47.8-112-57.2-12.8-3.3-26.1-6.6-28.9-7-2-.3-4.9-.8-6.6-1.1-5.8-1-7-1.2-13.5-1.9-3.6-.4-7.6-.9-9-1.2-3.3-.5-50.6-1.4-51.1-.9z"/></svg>